<svg xmlns="http://www.w3.org/2000/svg" viewBox="0 0 64 64"><g >
<path fill="#FF6158" d="M51.87,35A57.29,57.29,0,0,1,49.63,9.44l1-5.25a1,1,0,0,0-1-1.19H14.31a1,1,0,0,0-1,1.19l1,5.19A57.33,57.33,0,0,1,12.13,35,58.53,58.53,0,0,0,9.38,57.34l.19,2.73a1,1,0,0,0,1,.93H27.3a1,1,0,0,0,1-1V53.08a10.27,10.27,0,0,0,7.4,0V60a1,1,0,0,0,1,1H53.44a1,1,0,0,0,1-.93l.19-2.73A58.53,58.53,0,0,0,51.87,35ZM16.33,9.05,15.53,5H48.47l-.81,4.1a59.43,59.43,0,0,0,1.12,22.23,53.78,53.78,0,0,1-33.56,0A59.44,59.44,0,0,0,16.33,9.05ZM52.63,57.2,52.5,59H37.7v-7a10,10,0,0,0,1.6-1.31,1,1,0,1,0-1.41-1.41,8.33,8.33,0,0,1-11.78,0,1,1,0,1,0-1.41,1.41,10,10,0,0,0,1.6,1.31v7H11.5l-.13-1.8A56.57,56.57,0,0,1,14,35.62c.25-.78.47-1.56.69-2.35A55.57,55.57,0,0,0,32,36a55.57,55.57,0,0,0,17.28-2.75c.22.79.44,1.57.69,2.35A56.57,56.57,0,0,1,52.63,57.2Z"/>
<path fill="#FF6158" d="M22.22,25.66h2.69a2.24,2.24,0,0,1,2.24,2.24,1,1,0,0,0,2,0,4.24,4.24,0,0,0-4.24-4.24H22.22a1,1,0,0,0,0,2Z"/>
<path fill="#FF6158" d="M22.22,18.9h2.69a2.24,2.24,0,0,1,2.24,2.24,1,1,0,0,0,2,0,4.24,4.24,0,0,0-4.24-4.24H22.22a1,1,0,0,0,0,2Z"/>
<path fill="#FF6158" d="M22.22,12.14h2.69a2.24,2.24,0,0,1,2.24,2.24,1,1,0,1,0,2,0,4.24,4.24,0,0,0-4.24-4.24H22.22a1,1,0,0,0,0,2Z"/>
<path fill="#FF6158" d="M35.63,28.9a1,1,0,0,0,1-1,2.24,2.24,0,0,1,2.24-2.24h2.69a1,1,0,0,0,0-2H38.87a4.24,4.24,0,0,0-4.24,4.24A1,1,0,0,0,35.63,28.9Z"/>
<path fill="#FF6158" d="M35.63,22.14a1,1,0,0,0,1-1,2.24,2.24,0,0,1,2.24-2.24h2.69a1,1,0,0,0,0-2H38.87a4.24,4.24,0,0,0-4.24,4.24A1,1,0,0,0,35.63,22.14Z"/>
<path fill="#FF6158" d="M35.63,15.38a1,1,0,0,0,1-1,2.24,2.24,0,0,1,2.24-2.24h2.69a1,1,0,0,0,0-2H38.87a4.24,4.24,0,0,0-4.24,4.24A1,1,0,0,0,35.63,15.38Z"/></g></svg>